<svg width="207" height="209" viewBox="0 0 207 209" fill="none" xmlns="http://www.w3.org/2000/svg">
<circle cx="112.909" cy="112.909" r="94.0909" fill="#097EEB"/>
<path d="M146.364 140.091L150.545 113.955H125.455V95.6591C125.455 88.3409 128.068 82.5909 139.568 82.5909H151.591V58.5455C144.795 57.5 137.477 56.4545 130.682 56.4545C109.25 56.4545 94.0909 69.5227 94.0909 93.0455V113.955H70.5682V140.091H94.0909V206.477C99.3182 207.523 104.545 208.045 109.773 208.045C115 208.045 120.227 207.523 125.455 206.477V140.091H146.364Z" fill="white"/>
<circle cx="47.0455" cy="47.0455" r="47.0455" fill="#F02848"/>
<path fill-rule="evenodd" clip-rule="evenodd" d="M44.2227 24.4636C43.6986 24.4639 43.185 24.6101 42.7393 24.8858C42.2936 25.1615 41.9334 25.5558 41.6992 26.0246L39.6555 30.1091H30.109C29.3604 30.1091 28.6424 30.4065 28.1131 30.9358C27.5837 31.4652 27.2863 32.1832 27.2863 32.9318C27.2863 33.6804 27.5837 34.3984 28.1131 34.9278C28.6424 35.4571 29.3604 35.7545 30.109 35.7545V63.9818C30.109 65.4791 30.7038 66.915 31.7626 67.9737C32.8213 69.0325 34.2572 69.6273 35.7545 69.6273H58.3363C59.8336 69.6273 61.2695 69.0325 62.3283 67.9737C63.387 66.915 63.9818 65.4791 63.9818 63.9818V35.7545C64.7304 35.7545 65.4484 35.4571 65.9777 34.9278C66.5071 34.3984 66.8045 33.6804 66.8045 32.9318C66.8045 32.1832 66.5071 31.4652 65.9777 30.9358C65.4484 30.4065 64.7304 30.1091 63.9818 30.1091H54.4353L52.3917 26.0246C52.1574 25.5558 51.7972 25.1615 51.3516 24.8858C50.9059 24.6101 50.3922 24.4639 49.8681 24.4636H44.2227ZM38.5772 41.4C38.5772 40.6514 38.8746 39.9334 39.404 39.404C39.9333 38.8747 40.6513 38.5773 41.4 38.5773C42.1486 38.5773 42.8666 38.8747 43.3959 39.404C43.9253 39.9334 44.2227 40.6514 44.2227 41.4V58.3364C44.2227 59.085 43.9253 59.803 43.3959 60.3323C42.8666 60.8617 42.1486 61.1591 41.4 61.1591C40.6513 61.1591 39.9333 60.8617 39.404 60.3323C38.8746 59.803 38.5772 59.085 38.5772 58.3364V41.4ZM52.6909 38.5773C51.9422 38.5773 51.2243 38.8747 50.6949 39.404C50.1655 39.9334 49.8681 40.6514 49.8681 41.4V58.3364C49.8681 59.085 50.1655 59.803 50.6949 60.3323C51.2243 60.8617 51.9422 61.1591 52.6909 61.1591C53.4395 61.1591 54.1575 60.8617 54.6868 60.3323C55.2162 59.803 55.5136 59.085 55.5136 58.3364V41.4C55.5136 40.6514 55.2162 39.9334 54.6868 39.404C54.1575 38.8747 53.4395 38.5773 52.6909 38.5773Z" fill="white"/>
</svg>
